<svg xmlns="http://www.w3.org/2000/svg"  viewBox="0 0 32 32" width="32px" height="32px"><path d="M 11.585938 2 L 9.6230469 3.9628906 C 8.8686522 3.8591986 8.1169404 3.9627818 7.4667969 4.265625 C 6.5799707 4.6787173 5.8091588 5.2898678 5.2753906 5.9902344 L 3.6738281 8.0878906 L 4.7832031 9.1972656 L 3.9453125 10.875 L 6.6523438 22.611328 C 6.9508425 23.902741 7.7498933 25.023996 8.875 25.726562 L 14.939453 29.517578 C 15.586669 29.923087 16.413331 29.923087 17.060547 29.517578 L 23.125 25.726562 C 24.248998 25.023439 25.049126 23.902879 25.347656 22.611328 L 28.054688 10.875 L 27.216797 9.1972656 L 28.326172 8.0878906 L 26.724609 5.9902344 C 26.190841 5.2898678 25.420029 4.6787173 24.533203 4.265625 C 23.88306 3.9627818 23.131348 3.8591986 22.376953 3.9628906 L 20.414062 2 L 20 2 L 11.585938 2 z M 16 6.2324219 C 16.352939 6.2324219 16.704901 6.2890034 17.044922 6.4023438 L 18.050781 6.7382812 C 18.666291 6.9434511 19.331756 6.9434511 19.947266 6.7382812 L 19.949219 6.7382812 L 21.021484 6.3789062 C 21.414823 6.2479461 21.840152 6.3693213 22.105469 6.6875 L 24.779297 9.8964844 C 25.324737 10.550883 25.332106 11.483138 24.800781 12.146484 L 22.558594 14.949219 C 22.135583 15.477982 22.009451 16.188469 22.222656 16.830078 L 22.416016 17.408203 C 22.67362 18.180346 22.440076 19.023756 21.824219 19.554688 L 21.822266 19.556641 L 20.628906 20.603516 L 17.523438 18.71875 L 17.511719 18.712891 C 17.353397 18.622679 17.168697 18.639277 17 18.580078 L 17 16.720703 L 20.195312 15.65625 L 19.212891 11.728516 L 22.242188 10.970703 L 21.757812 9.0292969 L 16.787109 10.271484 L 17.804688 14.34375 L 16 14.945312 L 14.195312 14.34375 L 15.212891 10.271484 L 10.242188 9.0292969 L 9.7578125 10.970703 L 12.787109 11.728516 L 11.804688 15.65625 L 15 16.720703 L 15 18.599609 C 14.829398 18.663089 14.641653 18.650559 14.482422 18.746094 L 11.378906 20.607422 L 10.662109 19.976562 L 10.658203 19.972656 C 9.8887614 19.309206 9.738538 18.195233 10.302734 17.349609 L 10.351562 17.275391 L 10.353516 17.273438 C 10.899472 16.453487 10.76072 15.337574 10.027344 14.677734 L 7.1933594 12.125 C 6.6793597 11.459772 6.6867014 10.543474 7.2285156 9.8964844 L 9.9921875 6.5996094 C 10.275426 6.261746 10.730482 6.1484768 11.138672 6.3164062 L 11.933594 6.6425781 C 12.598059 6.9155637 13.33911 6.9413513 14.021484 6.7128906 L 14.953125 6.4023438 C 15.293146 6.2890035 15.647061 6.2324219 16 6.2324219 z M 7.0292969 7.0214844 L 6.7519531 7.3515625 L 6.8652344 7.203125 C 6.9089002 7.1458304 6.9722324 7.0829519 7.0292969 7.0214844 z M 8.0058594 18.984375 C 8.0069091 18.99229 8.0086691 18.999904 8.0097656 19.007812 L 8 19 L 8.0058594 18.984375 z M 16.013672 20.318359 C 16.188265 20.316256 16.363628 20.359231 16.521484 20.449219 L 19.052734 21.988281 L 16.660156 24.087891 C 16.277261 24.424129 15.723488 24.424787 15.339844 24.087891 L 12.955078 21.992188 L 15.509766 20.460938 C 15.665257 20.367643 15.839079 20.320463 16.013672 20.318359 z"/></svg>